<svg version="1.1" viewBox="0.0 0.0 1600.0 1600.0" fill="none" stroke="none" stroke-linecap="square" stroke-miterlimit="10" xmlns:xlink="http://www.w3.org/1999/xlink" xmlns="http://www.w3.org/2000/svg"><clipPath id="g3e95c645c1b_0_0.0"><path d="m0 0l1600.0 0l0 1600.0l-1600.0 0l0 -1600.0z" clip-rule="nonzero"/></clipPath><g clip-path="url(#g3e95c645c1b_0_0.0)"><path fill="#ad0025" d="m0 0l1600.0 0l0 1600.0l-1600.0 0z" fill-rule="evenodd"/><path fill="#000000" fill-opacity="0.0" d="m400.0 1200.0l800.0 0l0 144.0l-800.0 0z" fill-rule="evenodd"/><path fill="#84d8ff" d="m689.79694 1218.2412l68.40625 0l-34.203125 59.28125l-34.203125 -59.28125zm75.99994 0l68.40625 0l-34.203125 59.28125l-34.203125 -59.28125zm76.0 0l68.40625 0l-34.203125 59.28125l-34.203125 -59.28125z" fill-rule="nonzero"/><path fill="#000000" fill-opacity="0.0" d="m400.0 400.0l800.0 0l0 800.0l-800.0 0z" fill-rule="evenodd"/><path fill="#84d8ff" d="m401.12366 925.5575q16.359375 -1.453125 26.28125 -3.65625q9.9375 -2.1875 14.890625 -6.421875q4.96875 -4.234375 6.71875 -11.53125q1.75 -7.296875 1.75 -19.265625l0 -125.5625l58.40625 0l0 125.5625q0 22.484375 -4.671875 37.8125q-4.671875 15.328125 -15.921875 24.8125q-11.234375 9.5 -30.515625 14.609375q-19.265625 5.109375 -48.171875 7.4375l-8.765625 -43.796875zm49.640625 -186.875l0 -46.71875l58.40625 0l0 46.71875l-58.40625 0zm91.11401 166.4375l0 -213.15625l58.390625 0l0 213.15625l-58.390625 0zm94.88727 0l0 -58.40625l58.40625 0l0 58.40625l-58.40625 0zm168.77588 2.921875q-28.3125 0 -48.328125 -9.1875q-20.0 -9.203125 -30.359375 -26.875q-10.359375 -17.671875 -10.359375 -42.78125q0 -25.40625 10.359375 -42.921875q10.359375 -17.515625 30.359375 -26.71875q20.015625 -9.203125 48.328125 -9.203125q14.90625 0 27.15625 2.78125q12.265625 2.765625 23.953125 8.90625l-8.765625 40.875q-10.515625 -5.84375 -19.5625 -8.75q-9.046875 -2.921875 -18.390625 -2.921875q-16.9375 0 -26.0 9.640625q-9.046875 9.625 -9.046875 28.3125q0 18.6875 9.046875 28.328125q9.0625 9.640625 26.0 9.640625q9.34375 0 18.390625 -2.921875q9.046875 -2.921875 19.5625 -8.765625l8.765625 40.875q-11.6875 6.140625 -23.953125 8.90625q-12.25 2.78125 -27.15625 2.78125zm139.58441 0q-10.21875 0 -22.640625 -1.46875q-12.40625 -1.453125 -24.09375 -3.9375q-11.671875 -2.484375 -20.140625 -5.40625l5.84375 -40.875q16.0625 5.546875 29.046875 8.1875q13.0 2.625 25.5625 2.625q9.921875 0 13.5625 -1.890625q3.65625 -1.90625 3.65625 -6.578125q0 -2.34375 -1.171875 -3.9375q-1.15625 -1.609375 -4.515625 -2.78125q-3.359375 -1.171875 -10.078125 -2.625q-21.3125 -5.265625 -35.328125 -12.421875q-14.015625 -7.15625 -20.875 -17.078125q-6.859375 -9.921875 -6.859375 -22.78125q0 -23.0625 17.21875 -34.890625q17.234375 -11.828125 50.8125 -11.828125q14.59375 0 31.234375 2.34375q16.65625 2.328125 32.71875 6.71875l-5.84375 40.875q-15.484375 -4.96875 -27.453125 -7.0q-11.96875 -2.046875 -22.78125 -2.046875q-9.34375 0 -13.4375 1.609375q-4.078125 1.59375 -4.078125 5.6875q0 2.328125 1.453125 4.09375q1.46875 1.75 4.96875 3.0625q3.515625 1.3125 9.640625 2.765625q15.765625 3.515625 27.59375 8.625q11.828125 5.109375 19.5625 11.390625q7.734375 6.265625 11.671875 14.15625q3.953125 7.875 3.953125 17.21875q0 14.3125 -8.625 25.265625q-8.609375 10.953125 -24.234375 16.9375q-15.609375 5.984375 -36.34375 5.984375zm153.00806 0q-10.21875 0 -22.640625 -1.46875q-12.40625 -1.453125 -24.09375 -3.9375q-11.671875 -2.484375 -20.140625 -5.40625l5.84375 -40.875q16.0625 5.546875 29.046875 8.1875q13.0 2.625 25.5625 2.625q9.921875 0 13.5625 -1.890625q3.65625 -1.90625 3.65625 -6.578125q0 -2.34375 -1.171875 -3.9375q-1.15625 -1.609375 -4.515625 -2.78125q-3.359375 -1.171875 -10.078125 -2.625q-21.3125 -5.265625 -35.328125 -12.421875q-14.015625 -7.15625 -20.875 -17.078125q-6.859375 -9.921875 -6.859375 -22.78125q0 -23.0625 17.21875 -34.890625q17.234375 -11.828125 50.8125 -11.828125q14.59375 0 31.234375 2.34375q16.65625 2.328125 32.71875 6.71875l-5.84375 40.875q-15.484375 -4.96875 -27.453125 -7.0q-11.96875 -2.046875 -22.78125 -2.046875q-9.34375 0 -13.4375 1.609375q-4.078125 1.59375 -4.078125 5.6875q0 2.328125 1.453125 4.09375q1.46875 1.75 4.96875 3.0625q3.515625 1.3125 9.640625 2.765625q15.765625 3.515625 27.59375 8.625q11.828125 5.109375 19.5625 11.390625q7.734375 6.265625 11.671875 14.15625q3.953125 7.875 3.953125 17.21875q0 14.3125 -8.625 25.265625q-8.609375 10.953125 -24.234375 16.9375q-15.609375 5.984375 -36.34375 5.984375z" fill-rule="nonzero"/><path fill="#000000" fill-opacity="0.0" d="m400.00058 256.00098l800.0 0l0 144.0l-800.0 0z" fill-rule="evenodd"/></g></svg>